<mxfile host="app.diagrams.net" modified="2021-01-17T15:48:33.208Z" agent="5.0 (Macintosh; Intel Mac OS X 10_15_6) AppleWebKit/605.1.15 (KHTML, like Gecko) Version/14.0.2 Safari/605.1.15" etag="--Usn6adbk89v7sqGPIN" version="14.2.2" type="github">
  <diagram id="R2lEEEUBdFMjLlhIrx00" name="Page-1">
    <mxGraphModel dx="1236" dy="783" grid="1" gridSize="10" guides="1" tooltips="1" connect="1" arrows="1" fold="1" page="1" pageScale="1" pageWidth="850" pageHeight="1100" math="0" shadow="0" extFonts="Permanent Marker^https://fonts.googleapis.com/css?family=Permanent+Marker">
      <root>
        <mxCell id="0" />
        <mxCell id="1" parent="0" />
        <mxCell id="hjnHHBNUI-fx74SFqcon-1" value="Student" style="ellipse;whiteSpace=wrap;html=1;" vertex="1" parent="1">
          <mxGeometry x="120" y="470" width="150" height="80" as="geometry" />
        </mxCell>
        <mxCell id="hjnHHBNUI-fx74SFqcon-2" value="&lt;div class=&quot;page&quot; title=&quot;Page 3&quot;&gt;&lt;div class=&quot;layoutArea&quot;&gt;&lt;div class=&quot;column&quot;&gt;&lt;p&gt;&lt;span style=&quot;font-size: 12pt ; font-family: &amp;#34;arial&amp;#34; ; font-weight: 700&quot;&gt;College Assignments System&lt;/span&gt;&lt;/p&gt;&lt;/div&gt;&lt;/div&gt;&lt;/div&gt;" style="rounded=0;whiteSpace=wrap;html=1;" vertex="1" parent="1">
          <mxGeometry x="420" y="382.5" width="180" height="105" as="geometry" />
        </mxCell>
        <mxCell id="hjnHHBNUI-fx74SFqcon-4" value="" style="endArrow=classic;html=1;" edge="1" parent="1" source="hjnHHBNUI-fx74SFqcon-1">
          <mxGeometry relative="1" as="geometry">
            <mxPoint x="300" y="470" as="sourcePoint" />
            <mxPoint x="410" y="460" as="targetPoint" />
          </mxGeometry>
        </mxCell>
        <mxCell id="hjnHHBNUI-fx74SFqcon-5" value="Enrollment Request" style="edgeLabel;resizable=0;html=1;align=center;verticalAlign=middle;" connectable="0" vertex="1" parent="hjnHHBNUI-fx74SFqcon-4">
          <mxGeometry relative="1" as="geometry">
            <mxPoint as="offset" />
          </mxGeometry>
        </mxCell>
        <mxCell id="hjnHHBNUI-fx74SFqcon-10" value="" style="endArrow=classic;html=1;exitX=0.353;exitY=0.025;exitDx=0;exitDy=0;exitPerimeter=0;" edge="1" parent="1" source="hjnHHBNUI-fx74SFqcon-1">
          <mxGeometry relative="1" as="geometry">
            <mxPoint x="370" y="400" as="sourcePoint" />
            <mxPoint x="410" y="430" as="targetPoint" />
          </mxGeometry>
        </mxCell>
        <mxCell id="hjnHHBNUI-fx74SFqcon-11" value="Assignment Submission" style="edgeLabel;resizable=0;html=1;align=center;verticalAlign=middle;" connectable="0" vertex="1" parent="hjnHHBNUI-fx74SFqcon-10">
          <mxGeometry relative="1" as="geometry" />
        </mxCell>
        <mxCell id="hjnHHBNUI-fx74SFqcon-12" value="Student" style="ellipse;whiteSpace=wrap;html=1;" vertex="1" parent="1">
          <mxGeometry x="130" y="280" width="150" height="80" as="geometry" />
        </mxCell>
        <mxCell id="hjnHHBNUI-fx74SFqcon-13" value="" style="endArrow=classic;html=1;exitX=0;exitY=0.25;exitDx=0;exitDy=0;entryX=0.973;entryY=0.731;entryDx=0;entryDy=0;entryPerimeter=0;" edge="1" parent="1" source="hjnHHBNUI-fx74SFqcon-2" target="hjnHHBNUI-fx74SFqcon-12">
          <mxGeometry relative="1" as="geometry">
            <mxPoint x="370" y="400" as="sourcePoint" />
            <mxPoint x="470" y="400" as="targetPoint" />
          </mxGeometry>
        </mxCell>
        <mxCell id="hjnHHBNUI-fx74SFqcon-14" value="Label" style="edgeLabel;resizable=0;html=1;align=center;verticalAlign=middle;" connectable="0" vertex="1" parent="hjnHHBNUI-fx74SFqcon-13">
          <mxGeometry relative="1" as="geometry" />
        </mxCell>
        <mxCell id="hjnHHBNUI-fx74SFqcon-15" value="Course Leader" style="ellipse;whiteSpace=wrap;html=1;" vertex="1" parent="1">
          <mxGeometry x="350" y="180" width="150" height="80" as="geometry" />
        </mxCell>
        <mxCell id="hjnHHBNUI-fx74SFqcon-16" value="" style="endArrow=classic;html=1;exitX=-0.011;exitY=0.319;exitDx=0;exitDy=0;exitPerimeter=0;entryX=0.5;entryY=1;entryDx=0;entryDy=0;" edge="1" parent="1" source="hjnHHBNUI-fx74SFqcon-2" target="hjnHHBNUI-fx74SFqcon-12">
          <mxGeometry relative="1" as="geometry">
            <mxPoint x="370" y="400" as="sourcePoint" />
            <mxPoint x="470" y="400" as="targetPoint" />
          </mxGeometry>
        </mxCell>
        <mxCell id="hjnHHBNUI-fx74SFqcon-17" value="Potential Refusal Email" style="edgeLabel;resizable=0;html=1;align=center;verticalAlign=middle;" connectable="0" vertex="1" parent="hjnHHBNUI-fx74SFqcon-16">
          <mxGeometry relative="1" as="geometry" />
        </mxCell>
        <mxCell id="hjnHHBNUI-fx74SFqcon-18" value="" style="endArrow=classic;html=1;exitX=-0.011;exitY=0.319;exitDx=0;exitDy=0;exitPerimeter=0;entryX=0.547;entryY=1.038;entryDx=0;entryDy=0;entryPerimeter=0;" edge="1" parent="1" target="hjnHHBNUI-fx74SFqcon-15">
          <mxGeometry relative="1" as="geometry">
            <mxPoint x="500" y="382.5049999999999" as="sourcePoint" />
            <mxPoint x="286.98" y="326.51" as="targetPoint" />
          </mxGeometry>
        </mxCell>
        <mxCell id="hjnHHBNUI-fx74SFqcon-19" value="Potential Refusal Email" style="edgeLabel;resizable=0;html=1;align=center;verticalAlign=middle;" connectable="0" vertex="1" parent="hjnHHBNUI-fx74SFqcon-18">
          <mxGeometry relative="1" as="geometry" />
        </mxCell>
        <mxCell id="hjnHHBNUI-fx74SFqcon-20" value="Qualified Tutor" style="ellipse;whiteSpace=wrap;html=1;" vertex="1" parent="1">
          <mxGeometry x="560" y="170" width="150" height="80" as="geometry" />
        </mxCell>
        <mxCell id="hjnHHBNUI-fx74SFqcon-21" value="Submission Database" style="ellipse;whiteSpace=wrap;html=1;" vertex="1" parent="1">
          <mxGeometry x="710" y="280" width="130" height="87.5" as="geometry" />
        </mxCell>
        <mxCell id="hjnHHBNUI-fx74SFqcon-22" value="" style="endArrow=classic;html=1;" edge="1" parent="1" target="hjnHHBNUI-fx74SFqcon-21">
          <mxGeometry relative="1" as="geometry">
            <mxPoint x="600" y="390" as="sourcePoint" />
            <mxPoint x="700" y="390" as="targetPoint" />
          </mxGeometry>
        </mxCell>
        <mxCell id="hjnHHBNUI-fx74SFqcon-23" value="Valid Submission" style="edgeLabel;resizable=0;html=1;align=center;verticalAlign=middle;" connectable="0" vertex="1" parent="hjnHHBNUI-fx74SFqcon-22">
          <mxGeometry relative="1" as="geometry" />
        </mxCell>
        <mxCell id="hjnHHBNUI-fx74SFqcon-24" value="&lt;div class=&quot;page&quot; title=&quot;Page 4&quot;&gt;&lt;div class=&quot;layoutArea&quot;&gt;&lt;div class=&quot;column&quot;&gt;&lt;ul style=&quot;list-style-type: none&quot;&gt;&lt;li&gt;&lt;p&gt;&lt;font face=&quot;arialmt&quot; size=&quot;3&quot;&gt;administrator&lt;/font&gt;&lt;/p&gt;&lt;/li&gt;&lt;/ul&gt;&lt;/div&gt;&lt;/div&gt;&lt;/div&gt;" style="ellipse;whiteSpace=wrap;html=1;align=left;" vertex="1" parent="1">
          <mxGeometry x="780" y="460" width="170" height="80" as="geometry" />
        </mxCell>
        <mxCell id="hjnHHBNUI-fx74SFqcon-25" value="" style="endArrow=classic;html=1;entryX=1.017;entryY=0.938;entryDx=0;entryDy=0;entryPerimeter=0;exitX=0;exitY=0.5;exitDx=0;exitDy=0;" edge="1" parent="1" source="hjnHHBNUI-fx74SFqcon-24" target="hjnHHBNUI-fx74SFqcon-2">
          <mxGeometry relative="1" as="geometry">
            <mxPoint x="670" y="490" as="sourcePoint" />
            <mxPoint x="770" y="490" as="targetPoint" />
          </mxGeometry>
        </mxCell>
        <mxCell id="hjnHHBNUI-fx74SFqcon-26" value="Submission Search&amp;nbsp;" style="edgeLabel;resizable=0;html=1;align=center;verticalAlign=middle;" connectable="0" vertex="1" parent="hjnHHBNUI-fx74SFqcon-25">
          <mxGeometry relative="1" as="geometry" />
        </mxCell>
        <mxCell id="hjnHHBNUI-fx74SFqcon-27" value="" style="endArrow=classic;html=1;exitX=0.806;exitY=-0.005;exitDx=0;exitDy=0;exitPerimeter=0;entryX=0.68;entryY=0.975;entryDx=0;entryDy=0;entryPerimeter=0;" edge="1" parent="1" source="hjnHHBNUI-fx74SFqcon-2" target="hjnHHBNUI-fx74SFqcon-20">
          <mxGeometry relative="1" as="geometry">
            <mxPoint x="560" y="330" as="sourcePoint" />
            <mxPoint x="700" y="271" as="targetPoint" />
          </mxGeometry>
        </mxCell>
        <mxCell id="hjnHHBNUI-fx74SFqcon-28" value="Submission allocation" style="edgeLabel;resizable=0;html=1;align=center;verticalAlign=middle;" connectable="0" vertex="1" parent="hjnHHBNUI-fx74SFqcon-27">
          <mxGeometry relative="1" as="geometry" />
        </mxCell>
        <mxCell id="hjnHHBNUI-fx74SFqcon-29" value="" style="endArrow=classic;html=1;exitX=0;exitY=1;exitDx=0;exitDy=0;entryX=1.022;entryY=0.338;entryDx=0;entryDy=0;entryPerimeter=0;" edge="1" parent="1" source="hjnHHBNUI-fx74SFqcon-21" target="hjnHHBNUI-fx74SFqcon-2">
          <mxGeometry relative="1" as="geometry">
            <mxPoint x="640" y="420" as="sourcePoint" />
            <mxPoint x="740" y="420" as="targetPoint" />
          </mxGeometry>
        </mxCell>
        <mxCell id="hjnHHBNUI-fx74SFqcon-30" value="Retrival" style="edgeLabel;resizable=0;html=1;align=center;verticalAlign=middle;" connectable="0" vertex="1" parent="hjnHHBNUI-fx74SFqcon-29">
          <mxGeometry relative="1" as="geometry" />
        </mxCell>
        <mxCell id="hjnHHBNUI-fx74SFqcon-31" value="Marked Submission Database" style="ellipse;whiteSpace=wrap;html=1;" vertex="1" parent="1">
          <mxGeometry x="630" y="590" width="130" height="87.5" as="geometry" />
        </mxCell>
        <mxCell id="hjnHHBNUI-fx74SFqcon-32" value="" style="endArrow=classic;html=1;verticalAlign=bottom;labelPosition=center;verticalLabelPosition=top;align=center;" edge="1" parent="1" source="hjnHHBNUI-fx74SFqcon-20" target="hjnHHBNUI-fx74SFqcon-2">
          <mxGeometry relative="1" as="geometry">
            <mxPoint x="520" y="300" as="sourcePoint" />
            <mxPoint x="620" y="300" as="targetPoint" />
          </mxGeometry>
        </mxCell>
        <mxCell id="hjnHHBNUI-fx74SFqcon-33" value="Marked Submission" style="edgeLabel;resizable=0;html=1;align=center;verticalAlign=top;labelPosition=center;verticalLabelPosition=bottom;" connectable="0" vertex="1" parent="hjnHHBNUI-fx74SFqcon-32">
          <mxGeometry relative="1" as="geometry" />
        </mxCell>
        <mxCell id="hjnHHBNUI-fx74SFqcon-34" value="" style="endArrow=classic;html=1;exitX=0.75;exitY=1;exitDx=0;exitDy=0;entryX=0;entryY=0.389;entryDx=0;entryDy=0;entryPerimeter=0;" edge="1" parent="1" source="hjnHHBNUI-fx74SFqcon-2" target="hjnHHBNUI-fx74SFqcon-31">
          <mxGeometry relative="1" as="geometry">
            <mxPoint x="570" y="540" as="sourcePoint" />
            <mxPoint x="670" y="540" as="targetPoint" />
          </mxGeometry>
        </mxCell>
        <mxCell id="hjnHHBNUI-fx74SFqcon-35" value="Marked Submission" style="edgeLabel;resizable=0;html=1;align=center;verticalAlign=middle;" connectable="0" vertex="1" parent="hjnHHBNUI-fx74SFqcon-34">
          <mxGeometry relative="1" as="geometry" />
        </mxCell>
        <mxCell id="hjnHHBNUI-fx74SFqcon-36" value="" style="endArrow=classic;html=1;exitX=0.083;exitY=1.014;exitDx=0;exitDy=0;exitPerimeter=0;entryX=1;entryY=0.5;entryDx=0;entryDy=0;" edge="1" parent="1" source="hjnHHBNUI-fx74SFqcon-2" target="hjnHHBNUI-fx74SFqcon-1">
          <mxGeometry relative="1" as="geometry">
            <mxPoint x="425" y="529.5" as="sourcePoint" />
            <mxPoint x="525" y="529.5" as="targetPoint" />
          </mxGeometry>
        </mxCell>
        <mxCell id="hjnHHBNUI-fx74SFqcon-37" value="Marked Assignment" style="edgeLabel;resizable=0;html=1;align=center;verticalAlign=middle;" connectable="0" vertex="1" parent="hjnHHBNUI-fx74SFqcon-36">
          <mxGeometry relative="1" as="geometry" />
        </mxCell>
      </root>
    </mxGraphModel>
  </diagram>
</mxfile>
